 <svg xmlns="http://www.w3.org/2000/svg"  viewBox="0 0 90 90" height="80px"
    width="80px">
            <g fill-rule="nonzero" fill="none">
              <path
                fill="#4C12A1"
                d="M90 45c0 24.853-20.147 45-45 45S0 69.853 0 45 20.147 0 45 0a45.002 45.002 0 0 1 45 45"
              ></path>
              <path
                fill="#FFF"
                d="M77.83 52.588c2.985 0 5.715-1.882 5.715-4.835 0-2.639-1.42-3.769-3.969-4.493l-1.305-.375c-1.27-.349-2.114-.695-2.114-1.48 0-.606.52-1.158 1.587-1.158a1.906 1.906 0 0 1 1.855 1.13l2.752-1.362c-.987-1.905-2.984-2.607-4.696-2.607-2.81 0-4.835 1.74-4.835 4.128s1.737 3.36 3.62 3.912l1.796.52c1.477.435 1.905.87 1.905 1.797 0 1.099-1.073 1.709-2.26 1.709-1.27 0-2.54-.696-2.54-2-.004-.145.007-.29.032-.432H72.01c-.041.199-.06.402-.057.606 0 2.877 2.432 4.94 5.877 4.94zm-13.732 6.287a6.432 6.432 0 0 0 5.302-2.664 6.556 6.556 0 0 0 1.127-3.883v-14.57h-3.333v8.372c0 1.94-1.27 3.302-3.07 3.302-1.8 0-3.07-1.27-3.07-3.302v-8.372h-3.325v8.604c0 3.969 2.81 6.226 6.258 6.226a6.455 6.455 0 0 0 4.518-1.746v.232c-.27.363-.58.694-.927.984 0 2.521-1.566 3.651-3.274 3.651-1.797 0-2.838-.927-3.127-2.26h-3.274c0 2.299 2.23 5.426 6.198 5.426h-.003zm-16.164-6.633h3.33V43.54a3.065 3.065 0 0 1 3.07-3.041 2.934 2.934 0 0 1 1.537.317v-3.232a6.677 6.677 0 0 0-1.536-.175 6.1 6.1 0 0 0-4.372 1.769v-.232a3.12 3.12 0 0 1 .838-.898v-.29h-2.858l-.01 14.485zm-10.052 0h3.33V43.54a3.063 3.063 0 0 1 3.07-3.041 2.934 2.934 0 0 1 1.537.317v-3.232a6.686 6.686 0 0 0-1.537-.175 6.1 6.1 0 0 0-4.372 1.769v-.232c.218-.352.503-.657.839-.898v-.29H37.89l-.01 14.485zm-8.52.346a6.452 6.452 0 0 0 4.376-1.882v.231c-.225.389-.508.74-.838 1.045v.26h2.857V37.758h-3.33v8.372c0 1.94-1.27 3.302-3.074 3.302-1.736 0-3.099-1.305-3.099-3.302v-8.372h-3.317v8.604c0 3.766 2.505 6.226 6.429 6.226h-.003zm-14.512 0a7.377 7.377 0 0 0 6.75-4.229l-2.956-1.533c-.695 1.562-1.969 2.578-3.81 2.578-2.404 0-4.128-1.854-4.128-4.404s1.712-4.404 4.128-4.404c1.854 0 3.127 1.013 3.81 2.578l2.956-1.536a7.386 7.386 0 0 0-6.75-4.23 7.592 7.592 0 1 0 0 15.18z"
              ></path>
            </g>
          </svg>